<svg width="693" height="531" viewBox="0 0 693 531" fill="none"
  xmlns="http://www.w3.org/2000/svg">
  <rect x="72" y="0.000976562" width="80" height="160" rx="8" fill="#616161"/>
  <path d="M127.96 41.041V37.521H104.36C104.76 37.001 105.12 36.481 105.48 35.921L100.92 35.041C99.48 37.241 96.96 39.761 93.6 41.721C94.68 42.281 96.2 43.521 97 44.481C98.56 43.401 100 42.281 101.28 41.041H127.96ZM106.56 60.801C105.92 62.041 105.16 63.081 104.24 64.081C103.36 63.161 102.2 62.121 101.08 61.201L101.48 60.801H106.56ZM104.6 48.881H107.04V51.521H104.6V48.881ZM113.84 48.881V51.521H111.16V48.881H113.84ZM120.52 48.881V51.521H117.96V48.881H120.52ZM109.08 57.561L108.4 57.681H103.88C104.24 57.081 104.6 56.481 104.92 55.881L102.6 55.241H130.32V51.521H125.08V48.881H128.92V45.081H125.08V42.161H120.52V45.081H117.96V42.321H113.84V45.081H111.16V42.321H107.04V45.081H104.6V42.201H100.16V45.081H96.04V48.881H100.16V51.521H93.92V55.241H100.96C99.36 58.201 96.44 60.721 93.32 62.321C94.12 63.001 95.52 64.441 96.16 65.161C96.96 64.681 97.72 64.121 98.52 63.521C99.56 64.481 100.68 65.601 101.4 66.481C99.4 67.801 97.12 68.801 94.6 69.481C95.44 70.201 96.76 71.841 97.24 72.841C103.8 70.641 109.28 66.361 111.64 58.761L109.08 57.561ZM116.04 64.601C116.4 63.521 116.76 62.441 117.12 61.321H119.72V64.601H116.04ZM130.56 64.601H124.24V61.321H129.8V57.681H124.24V55.721H119.72V57.681H111.68V61.321H112.8C112.04 63.761 111.2 66.281 110.44 68.161H119.72V72.401H124.24V68.161H130.56V64.601ZM120.36 115.441V121.841H103.4V115.441H120.36ZM98.52 128.441H103.4V126.401H120.36V128.401H125.48V110.881H98.52V128.441ZM115.28 97.281C116.76 98.761 118.36 100.441 119.92 102.201L103.52 102.721C106.56 99.801 109.72 96.241 112.24 92.521L107.44 90.481C104.72 95.281 100.36 100.121 98.96 101.361C97.64 102.641 96.68 103.401 95.64 103.681C96.2 104.921 96.96 107.281 97.2 108.241C99.32 107.521 102.16 107.441 123.4 106.401C124.24 107.521 124.96 108.561 125.48 109.441L129.52 106.521C127.44 103.161 122.68 98.241 119 94.801L115.28 97.281Z" fill="white"/>
  <rect x="272" y="192.001" width="65" height="65" rx="8" fill="#E0E0E0"/>
  <rect x="361" y="192.001" width="65" height="65" rx="8" fill="#E0E0E0"/>
  <rect x="450" y="192.001" width="65" height="65" rx="8" fill="#E0E0E0"/>
  <rect x="539" y="192.001" width="65" height="65" rx="8" fill="#E0E0E0"/>
  <rect x="628" y="192.001" width="65" height="65" rx="8" fill="#E0E0E0"/>
  <rect x="272" y="273.001" width="65" height="65" rx="8" fill="#E0E0E0"/>
  <rect x="361" y="273.001" width="65" height="65" rx="8" fill="#A07AEA"/>
  <rect x="450" y="273.001" width="65" height="65" rx="8" fill="#E0E0E0"/>
  <rect x="539" y="273.001" width="65" height="65" rx="8" fill="#E0E0E0"/>
  <rect x="628" y="273.001" width="65" height="65" rx="8" fill="#E0E0E0"/>
  <path fill-rule="evenodd" clip-rule="evenodd" d="M395 364.825L347.161 422.001H245V417.96H345.704L392.526 362.001L395 364.825Z" fill="url(#paint0_linear_183_915)"/>
  <path d="M103.339 493.028C159.307 493.028 204.677 447.786 204.677 391.977C204.677 336.169 159.307 290.927 103.339 290.927C47.3709 290.927 2 336.169 2 391.977C2 447.786 47.3709 493.028 103.339 493.028Z" stroke="url(#paint1_linear_183_915)" stroke-width="4" stroke-miterlimit="10"/>
  <path d="M6.12598 295.102C59.8095 241.634 146.807 241.634 200.491 295.102" stroke="url(#paint2_linear_183_915)" stroke-width="4" stroke-miterlimit="10" stroke-dasharray="15 15"/>
  <path d="M200.49 488.853C146.807 542.383 59.809 542.383 6.18896 488.853" stroke="url(#paint3_linear_183_915)" stroke-width="4" stroke-miterlimit="10" stroke-dasharray="15 15"/>
  <path d="M57.0666 415.498C62.4426 415.498 66.8666 413.37 70.2826 409.394L65.9146 404.242C63.6746 406.65 60.9306 408.33 57.3466 408.33C50.7946 408.33 46.5386 402.898 46.5386 393.882C46.5386 384.978 51.2426 379.602 57.5146 379.602C60.6506 379.602 63.0586 381.058 65.1866 383.074L69.4986 377.81C66.8106 375.01 62.6106 372.49 57.3466 372.49C46.8746 372.49 38.0826 380.498 38.0826 394.162C38.0826 407.994 46.5946 415.498 57.0666 415.498ZM84.3163 414.714H92.6043V380.162H104.364V373.218H72.6683V380.162H84.3163V414.714ZM122.508 415.498C131.02 415.498 136.508 408.05 136.508 394.33C136.508 380.722 131.02 373.554 122.508 373.554C113.996 373.554 108.452 380.666 108.452 394.33C108.452 408.05 113.996 415.498 122.508 415.498ZM122.508 409.058C118.924 409.058 116.236 405.586 116.236 394.33C116.236 383.13 118.924 379.994 122.508 379.994C126.092 379.994 128.724 383.13 128.724 394.33C128.724 405.586 126.092 409.058 122.508 409.058ZM155.429 415.498C163.829 415.498 169.373 410.682 169.373 404.41C169.373 398.978 166.181 396.01 162.429 393.882V393.602C165.061 391.754 167.749 388.506 167.749 384.53C167.749 377.922 163.045 373.554 155.709 373.554C148.541 373.554 143.221 377.81 143.221 384.474C143.221 388.73 145.573 391.698 148.709 393.994V394.218C144.901 396.234 141.597 399.426 141.597 404.41C141.597 410.906 147.533 415.498 155.429 415.498ZM158.061 391.586C153.749 389.906 150.501 388.17 150.501 384.474C150.501 381.17 152.741 379.378 155.541 379.378C159.013 379.378 161.029 381.73 161.029 385.09C161.029 387.386 159.965 389.57 158.061 391.586ZM155.653 409.674C151.789 409.674 148.709 407.266 148.709 403.514C148.709 400.658 150.333 398.194 152.517 396.458C157.837 398.642 161.701 400.098 161.701 404.13C161.701 407.714 159.181 409.674 155.653 409.674Z" fill="white"/>
  <defs>
    <linearGradient id="paint0_linear_183_915" x1="245" y1="398.376" x2="312.026" y2="472.951" gradientUnits="userSpaceOnUse">
      <stop stop-color="#C59EF3"/>
      <stop offset="0.351841" stop-color="#A277FD"/>
      <stop offset="0.666667" stop-color="#7763F1"/>
      <stop offset="1" stop-color="#6C59FF"/>
    </linearGradient>
    <linearGradient id="paint1_linear_183_915" x1="2" y1="413.451" x2="171.01" y2="488.884" gradientUnits="userSpaceOnUse">
      <stop stop-color="#C59EF3"/>
      <stop offset="0.351841" stop-color="#A277FD"/>
      <stop offset="0.666667" stop-color="#7763F1"/>
      <stop offset="1" stop-color="#6C59FF"/>
    </linearGradient>
    <linearGradient id="paint2_linear_183_915" x1="6.12597" y1="279.312" x2="40.5073" y2="353.477" gradientUnits="userSpaceOnUse">
      <stop stop-color="#C59EF3"/>
      <stop offset="0.351841" stop-color="#A277FD"/>
      <stop offset="0.666667" stop-color="#7763F1"/>
      <stop offset="1" stop-color="#6C59FF"/>
    </linearGradient>
    <linearGradient id="paint3_linear_183_915" x1="6.18896" y1="513.192" x2="40.6446" y2="587.405" gradientUnits="userSpaceOnUse">
      <stop stop-color="#C59EF3"/>
      <stop offset="0.351841" stop-color="#A277FD"/>
      <stop offset="0.666667" stop-color="#7763F1"/>
      <stop offset="1" stop-color="#6C59FF"/>
    </linearGradient>
  </defs>
</svg>
