<svg width="519" height="127" viewBox="0 0 519 127" fill="none"
  xmlns="http://www.w3.org/2000/svg">
  <path fill-rule="evenodd" clip-rule="evenodd" d="M447 5.06832C447.014 7.79382 444.877 10.0018 442.227 10L251.822 9.86992C249.173 9.86811 247.014 7.65718 247 4.93168C246.986 2.20618 249.123 -0.00181349 251.773 1.11768e-06L442.178 0.130083C444.827 0.131885 446.986 2.34282 447 5.06832Z" fill="#E0E0E0"/>
  <path fill-rule="evenodd" clip-rule="evenodd" d="M519 126.071C519.003 126.584 518.557 127 518.003 127L290.007 126.86C289.454 126.859 289.003 126.443 289 125.929C288.997 125.416 289.443 125 289.997 125L517.993 125.14C518.546 125.141 518.997 125.557 519 126.071Z" fill="#E0E0E0"/>
  <path fill-rule="evenodd" clip-rule="evenodd" d="M350 67.6466C350.003 68.3945 349.525 69.0005 348.932 69L1.07938 68.7087C0.486308 68.7082 0.003051 68.1014 1.449e-05 67.3534C-0.00303389 66.6055 0.475289 65.9995 1.06838 66L348.921 66.2913C349.514 66.2918 349.997 66.8986 350 67.6466Z" fill="#E0E0E0"/>
</svg>
