<?xml version="1.0" encoding="utf-8"?>
<!-- Generator: Adobe Illustrator 27.4.1, SVG Export Plug-In . SVG Version: 6.00 Build 0)  -->
<svg version="1.1" id="Layer_1"
	xmlns="http://www.w3.org/2000/svg"
	xmlns:xlink="http://www.w3.org/1999/xlink" x="0px" y="0px" viewBox="0 0 623 59" style="enable-background:new 0 0 623 59;" xml:space="preserve">
	<style type="text/css">
	.st0{fill:#232323;}
	.st1{fill:none;}
	.st2{font-family:'Gotham-Ultra';}
	.st3{font-size:74.1159px;}
	</style>
	<path class="st0" d="M405.8,16c-0.9,0.4-1.9,0.9-2.8,1.3c-1.5,0.6-3.1,1.1-4.5,1.9c-3.1,1.7-5.4,2.4-8.6-0.9
	c-3.9-4-9.5-4.5-14.9-2.1c-5.4,2.4-8.5,6.6-8.7,12.4c-0.3,9.6,7.2,16.4,16.9,15.2c3.6-0.4,6.7-2.1,8.8-5.1c0.9-1.2,1.6-1.3,2.8-0.8
	c3.7,1.6,7.5,3.1,11.2,4.7c-3.8,9.2-15.9,16.1-29.5,14.4c-14.3-1.8-24.1-12.8-24.3-27.2C352,16,361.3,4.3,373.8,2.1
	C388.7-0.5,401.2,5.7,405.8,16L405.8,16z"/>
	<path class="st0" d="M343.6,3.1v11.2c-1.4,0-2.7,0-4,0c-5.7,0-11.5,0.2-17.2,0.1c-1.6,0-2,0.5-1.8,1.9c0.1,1.6,0.1,3.2,0,4.7
	c-0.2,1.7,0.4,2.3,2.3,2.3c6-0.1,12,0,18-0.1c1.7,0,2.2,0.5,2.1,2.1c-0.1,2.5-0.1,5.1,0,7.6c0.1,1.5-0.3,2-2,2
	c-6.2-0.1-12.3,0-18.5,0c-1.4,0-1.9,0.4-1.8,1.8c0.1,1.8,0.1,3.7,0,5.5c-0.1,1.4,0.4,1.9,1.9,1.9c6.4-0.1,12.7,0,19.1,0
	c0.6,0,1.2,0,2,0v11.6c-0.6,0-1.3,0.1-2,0.1c-11,0-22,0-33.1,0c-1.6,0-2.1-0.3-2.1-2c0.1-16.4,0-32.9,0-49.4c0-1,0.1-1.6,1.4-1.6
	c11.8,0.1,23.6,0.1,35.3,0.1C343.2,2.9,343.4,3,343.6,3.1L343.6,3.1z"/>
	<path class="st0" d="M54.2,15.8c-0.5,0.3-0.9,0.6-1.3,0.8c-3.4,1.4-6.7,2.7-10.1,4.1c-1,0.4-1.6,0.4-2.2-0.5
	c-4.1-5.4-10.7-6.5-16.6-4.6c-5.8,1.9-9.6,7.4-9.5,13.5c0.1,6.5,4.1,12.1,10,14.1c5.5,1.8,12,0.1,15.6-4.5c1-1.3,1.8-1.4,3.3-0.7
	c3,1.4,6.2,2.6,9.4,3.8c0.6,0.2,1.1,0.5,1.6,0.8c-5.2,11-18.9,16.6-32,14C9.5,54,0.6,42.5,0.6,29.2c0-13.6,8.6-24.4,21.6-27.1
	C35.6-0.6,49.1,5.1,54.2,15.8z"/>
	<path class="st0" d="M203,55.7c-7.8,0-15.2,0-22.7,0c-4.2,0-8.3-0.1-12.5,0c-1.7,0-2.2-0.4-2.2-2.1c0.1-15.4,0-30.8,0-46.2
	c0-3,1.5-4.5,4.6-4.5c10.5,0,21,0,31.5,0.1c0.3,0,0.6,0,1,0v11.3c-1.1,0-2.2,0-3.3,0c-6,0.1-12.1,0.1-18.1,0.1
	c-1.5,0-1.8,0.5-1.7,1.8c0.2,1.7,0.1,3.5,0,5.3c-0.1,1.4,0.4,1.8,1.8,1.8c6.2-0.1,12.3,0,18.5-0.1c1.6,0,2.1,0.4,2,1.9
	c-0.1,2.7-0.1,5.3,0,8c0,1.3-0.4,1.8-1.8,1.8c-6.2-0.1-12.3,0-18.5,0c-1.4,0-2,0.2-1.9,1.8c0.2,1.9,0,3.8-0.1,5.6
	c-0.1,1.3,0.3,1.7,1.7,1.7c6.4,0,12.9,0,19.3,0c1.6,0,2.4,0.8,2.4,2.4C203,49.5,203,52.5,203,55.7L203,55.7z"/>
	<path class="st0" d="M593.1,38.9c0,1-0.1,1.8,0,2.5c0.3,3.7,3.3,6.3,7.3,6.4c4.8,0.1,7.9-2,8.4-5.8c0.6-3.7-2.5-7.2-6.7-7.5
	c-1.8-0.1-3.6-0.1-5.5,0c-1,0-1.4-0.3-1.4-1.3c0-2.7,0-5.5,0-8.2c0-1.1,0.7-1.3,1.6-1.3c1.8,0,3.5,0,5.3-0.1
	c3.3-0.3,5.9-2.8,5.9-5.6c0-3.2-2.5-5.5-6.4-5.9c-3.2-0.3-5.7,1.5-6.3,4.7c-0.2,0.9-0.3,1.9-0.4,3h-12.8c0.3-5.2,1.3-10.1,5.4-13.9
	C596.2-2.2,612.8,0,619,10c3.2,5.2,3.7,12.6-3,18.8c0.3,0.3,0.5,0.6,0.8,0.9c6.8,6,7,16.7,0.6,23c-7.3,7.2-21.3,8.4-29.8,2.7
	c-5.5-3.8-7.6-9.1-7.9-15.4c0-0.3,0.7-1,1-1C584.8,38.9,588.8,38.9,593.1,38.9L593.1,38.9z"/>
	<path class="st0" d="M449.9,46.2c2.6,0,4.8,0,7.1,0c3.8,0,7.6,0.1,11.3,0c1.6,0,2,0.5,1.9,1.9c-0.1,2.5-0.1,5,0,7.5
	c0,1.3-0.4,1.6-1.8,1.6c-13.7,0-27.3,0-41,0c-1.1,0-2.2,0-3.7,0c2.4-2.6,4.4-4.8,6.5-7c7.2-7.5,14.5-15.1,21.7-22.6
	c2-2.1,3.8-4.2,4.2-7.2c0.8-4.9-2.1-8.3-7.2-8.5c-0.9,0-1.8,0-2.6,0c-4.3,0.2-6.7,2.5-6.9,6.6c-0.1,1,0,1.9,0,3h-11.9
	c-1.1-11,4-18.4,15.6-20.1c4.1-0.6,8-0.5,12,0.5c8.5,2.2,13.6,9.3,13.2,17.9c-0.2,5.2-2.7,9.4-6.1,13.2
	C458.2,37.3,454.2,41.6,449.9,46.2L449.9,46.2z"/>
	<path class="st0" d="M541.7,21.5h-11.9c-1.2-11.1,3.8-18.4,15.5-20.1c4.5-0.7,8.9-0.5,13.2,0.9c11.2,3.7,14.3,15.9,10.1,24.2
	c-1.8,3.6-4.6,6.8-7.3,9.9c-2.6,3-5.5,5.6-8.3,8.4c-0.3,0.3-0.6,0.7-1.1,1.4c1,0,1.5,0,2.1,0c5.6,0,11.2,0,16.8,0
	c1.2,0,1.5,0.4,1.5,1.5c0,2.7,0,5.3,0,8c0,1-0.3,1.5-1.5,1.5c-14.7,0-29.3,0-44-0.1c-0.1,0-0.2-0.1-0.5-0.3c1.5-1.5,2.9-3,4.3-4.5
	c8-8.4,15.9-16.9,23.9-25.3c2.4-2.6,4.4-5.5,3.6-9.3c-0.7-3.5-2.6-5.3-6.3-5.7c-1.1-0.1-2.3-0.1-3.4,0c-4.5,0.3-6.7,2.7-6.7,7
	C541.6,19.6,541.6,20.4,541.7,21.5L541.7,21.5z"/>
	<path class="st0" d="M290.5,15.8c-3.1-1.1-5.9-2.3-8.9-2.9c-1.5-0.3-3.5,0.3-5,1.1c-2.6,1.4-2.5,4.9,0,6.4c1.8,1,3.9,1.6,5.9,2.4
	c1.8,0.7,3.7,1.1,5.5,1.9c8.5,3.5,11.2,10.1,9.7,18.4c-1.3,7.2-7.4,12.4-15.3,13.6c-8.2,1.3-15.8-0.2-22.8-4.4
	c-1.2-0.7-1.6-1.3-0.8-2.6c1.6-2.6,3-5.3,4.4-8c0.7-1.3,1.2-1.2,2.2-0.4c3.6,2.9,7.7,4.5,12.5,4.1c3.6-0.3,5.7-2.5,5.1-5.8
	c-0.2-1.1-1.1-2.5-2.1-3.1c-2-1.2-4.3-1.9-6.5-2.8c-2.5-1-5.1-1.8-7.4-3c-3.8-2-5.9-5.2-6.5-9.3c-1.7-12.2,6.6-20.7,19.6-20
	c4.9,0.3,9.6,1.4,14,3.3c1.4,0.6,1.8,1.1,1,2.6C293.4,10.2,291.9,13.2,290.5,15.8L290.5,15.8z"/>
	<path class="st0" d="M54.1,2.9c5.3,0,10.2,0,15.2,0.1c0.7,0,1.6,0.7,2,1.3c2.5,3.4,4.9,6.9,7.3,10.4c0.6,0.8,1.2,1.7,1.9,2.7
	c0.7-0.9,1.3-1.7,1.8-2.5c2.5-3.6,4.9-7.2,7.4-10.8C90.2,3.6,91.1,3,91.7,3c5-0.1,10.1-0.1,15.5-0.1c-0.4,0.7-0.7,1.2-1,1.6
	c-5.9,8.1-11.9,16.3-17.7,24.5c-0.6,0.9-1,2.1-1,3.2c0,7.2,0.1,14.3,0.2,21.5c0,1.5-0.3,2.1-2.1,2.1c-3.4-0.2-6.8-0.1-10.2,0
	c-1.4,0-1.9-0.3-1.8-1.7c0.1-7.3,0.1-14.7,0.1-22c0-1-0.3-2.1-0.9-2.8C66.9,21,61.2,13,55.4,5C54.9,4.4,54.6,3.7,54.1,2.9L54.1,2.9z
	"/>
	<path class="st0" d="M146.6,27.9c-0.5-0.1-1-0.2-2-0.5c1.2-0.4,1.9-0.7,2.6-1c2.2-0.9,4-2.2,5.2-4.3c4.6-8-0.6-18.3-9.9-19
	c-8.4-0.6-17-0.3-25.5-0.4c-1.2,0-1.2,0.7-1.2,1.6c0,16.6,0,33.1,0,49.7c0,1,0,1.6,1.4,1.6c8.1-0.1,16.3,0.1,24.4-0.2
	c9.6-0.4,15.5-6.3,15.7-15.1C157.3,33.6,153.6,29.2,146.6,27.9L146.6,27.9z M130,18.4L130,18.4c0-0.3,0-0.6,0-0.9
	c0.4-1.4-1.2-3.5,0.8-4.1c4.2-1.2,8.9,0.4,9.9,2.9c1.3,3.4-0.4,6.5-4.1,7c-1.8,0.3-3.6,0.1-5.4,0.2c-1,0-1.3-0.5-1.2-1.3
	C130,21,129.9,19.7,130,18.4L130,18.4z M138.3,44.7c-2.7,0.2-5.3,0-8.2,0c0-3.4,0-6.7,0.1-10.1c0-0.3,0.8-0.9,1.2-0.9
	c2.4,0,4.8,0,7.1,0.3c3,0.3,4.5,2.4,4.5,5.5C142.9,42.7,141.3,44.6,138.3,44.7L138.3,44.7z"/>
	<path class="st0" d="M239.3,34.1c0.9-0.3,1.4-0.5,1.9-0.7c3.7-1.3,6.8-3.3,8.4-6.9c4.5-10-0.1-23.2-14.9-23.6
	c-7.3-0.2-14.6,0-21.9-0.1c-1.2,0-1.5,0.4-1.5,1.5c0,16.6,0.1,33.2,0,49.9c0,1.2,0.3,1.6,1.6,1.6c3.6-0.1,7.2-0.1,10.8,0
	c1.4,0,1.8-0.3,1.8-1.7c-0.1-5.5,0-10.9,0-16.4c0-0.5,0-1,0.1-1.5c0.8,0.5,1.3,1.1,1.7,1.8c3.6,5.4,7.2,10.8,10.7,16.3
	c0.7,1.1,1.5,1.6,2.9,1.5c2.6-0.1,5.3,0,7.9,0c2.4,0,4.7,0,7.5,0C250.5,48.3,244.9,41.3,239.3,34.1L239.3,34.1z M231.6,26
	c-1.5,0.3-3,0.3-4.5,0.4c-1,0.1-1.5-0.3-1.5-1.3c0-3.8,0-7.6,0-11.9c2.3,0.2,4.4,0.3,6.4,0.7c3.3,0.7,4.9,3.1,4.8,6.5
	C236.6,23.4,234.7,25.5,231.6,26L231.6,26z"/>
	<path class="st0" d="M520.4,18.1c-3-9.3-8.9-15.8-19.6-17c-8.2-0.9-18.6,2.5-23.1,11.8c-3.9,8.2-4.9,16.7-2.8,25.4
	c2.4,10.2,8.7,18,20,19.3c7.1,0.8,13.7-0.6,18.8-5.9c6.2-6.3,8.2-14,8.8-22.4C521.9,25.6,521.6,21.7,520.4,18.1L520.4,18.1z
	 M508,41.3c-1.8,3.9-5.2,6.3-9.8,6.3c-4.6,0-7.8-2.4-9.9-6.2c-1.9-3.3-2.5-6.4-2.6-12.6c-0.2-4,0.6-8.2,2.9-12.1
	c3-5,8.4-6.9,13.5-4.8c2.6,1,4.5,2.8,5.6,5.2C511.7,25,511.8,33.2,508,41.3L508,41.3z"/>
	<text transform="matrix(1 0 0 1 -3.1862 55.7287)" class="st1 st2 st3">CYBERSEC 2023</text>
</svg>
