<?xml version="1.0" encoding="UTF-8"?>
<svg id="Layer_1"
	xmlns="http://www.w3.org/2000/svg" viewBox="0 0 788 320">
	<defs>
		<style>.cls-1{font-size:85.88px;}.cls-1,.cls-2{fill:none;font-family:AcuminConcept-ExtraCondensedBlack, 'Acumin Variable Concept';font-variation-settings:'wght' 800, 'wdth' 50, 'slnt' 0;font-weight:800;}.cls-3{letter-spacing:.01em;}.cls-4{letter-spacing:0em;}.cls-5{letter-spacing:0em;}.cls-6{letter-spacing:.03em;}.cls-7{letter-spacing:0em;}.cls-2{font-size:251.5px;}.cls-8{letter-spacing:.2em;}.cls-9{letter-spacing:0em;}.cls-10{letter-spacing:0em;}.cls-11{letter-spacing:0em;}.cls-12{letter-spacing:.01em;}.cls-13{letter-spacing:.2em;}</style>
	</defs>
	<path d="m387.3,26.9h31.2v134.6h39.2l-2.8,27.2h-67.7V26.9h.1Z"/>
	<path d="m474.3,188.7l2.8-27.4h23.3l-2.8,27.4h-23.3Z"/>
	<path d="m519.1,26.9h30.3v70.5h.5c5.1-15.2,15.8-48.3,23.1-70.5h34.4l-27.2,62.6,28.2,99.2h-33.7l-16-68.2-9.3,20.7v47.6h-30.4l.1-161.9h0Z"/>
	<path d="m749.5,133.4v8.8c0,20.4-3.8,46.5-40.9,46.5-27.5,0-39.4-14.6-39.4-44.3v-74.5c0-28.2,14.1-43,40.1-43,34.3,0,39.8,22.5,39.8,43.7v10.2h-31.4v-13.8c0-8.9-1.9-13.4-8.4-13.4s-8.5,4.3-8.5,13.4v80.7c0,8.6,1.5,14.5,8.5,14.5s8.7-4.9,8.7-15.2v-13.4l31.5-.2h0Z"/>
	<path d="m623,188.7l2.8-27.4h23.3l-2.8,27.4h-23.3Z"/>
	<path d="m761.9,188.7l2.8-27.4h23.3l-2.8,27.4h-23.3Z"/>
	<path d="m142.5,18.2l-46.6,26.8c-1.5.8-2.3,2.4-2.3,4.1l2.5,77.8c0,1.7,1,3.2,2.6,3.9l57.8,28.1c1.2.6,2.7.6,4,0l57.8-28.1c1.5-.7,2.5-2.2,2.6-3.9l2.5-78.2c0-1.5-.6-2.8-1.8-3.7L164.9,1c-.6-.4,0-1.3.6-.9l73.3,42.2c2.8,1.6,4.6,4.6,4.6,7.8v87.4c0,3.2-1.7,6.2-4.6,7.8l-75.8,43.8c-2.8,1.6-6.3,1.6-9.1,0l-75.9-43.7c-2.8-1.6-4.5-4.6-4.5-7.8V50.9c0-3.6,2.2-6.9,5.5-8.3l62.5-26.3c1.3-.6,2.2,1.3,1,1.9"/>
	<path d="m139.6,260.4l-52.7,25.7c-1.2.6-2.7.6-4,0l-57.8-28.1c-1.5-.7-2.5-2.2-2.6-3.9l-2.2-78c0-1.7.8-3.2,2.3-4.1l39.4-22.6c.6-.4.2-1.3-.5-1l-55.7,21.5c-3.5,1.4-5.8,4.7-5.8,8.5v86.4c0,3.2,1.7,6.2,4.5,7.8l75.9,43.7c2.8,1.6,6.3,1.6,9.1,0l61.6-35.3-4.6-2.6c-4.2-2.4-6.8-6.9-6.8-11.8v-6.2h-.1Z"/>
	<path d="m147.9,193.5l-.7,71.1c0,3.3,1.7,6.3,4.5,7.9l75.8,43.7c2.8,1.6,6.3,1.6,9.1,0l75.2-43.3c3.1-1.8,4.9-5.3,4.5-8.9l-9.5-76.3c-.1-.7-1.1-.7-1.1.1v62.8c0,1.7-1,3.3-2.5,4.1l-69,34.2c-1.3.7-2.9.6-4.2,0l-57.6-30.9c-1.5-.8-2.4-2.3-2.4-4l-.6-60.6-4.3,2.3c-4.1,2.2-9.1,2.2-13.2-.1l-4-2.1h0Z"/>
	<path d="m56.4,207.4l.9,26.9c0,1.7,1,3.2,2.6,3.9l23.1,11.3c1.2.6,2.7.6,4,0l23.2-11.3c1.5-.7,2.5-2.2,2.5-3.9l.9-26.9c0-1.7-.9-3.3-2.4-4.1l-24.1-12.8c-1.3-.7-2.9-.7-4.2,0l-24,12.8c-1.7.7-2.6,2.3-2.5,4.1"/>
	<path d="m190.2,79.7l-.9,27.8c-.1,2.5-1.5,4.8-3.8,5.9l-24,11.7c-1.9.9-4.1.9-6,0l-24.1-11.7c-2.3-1.1-3.7-3.3-3.8-5.9l-.9-27.7c-.1-2.6,1.3-5,3.6-6.2l25-13.2c2-1.1,4.4-1.1,6.4,0l24.9,13.2c2.4,1.1,3.8,3.5,3.6,6.1"/>
	<path d="m388.8,246.9v57.8h24.2l1-9.7h-14v-48.1h-11.2Z"/>
	<path d="m428.5,284.7v6.7c0,3,.7,5.1,3.2,5.1,2.7,0,3.2-2.3,3.2-5.2v-1h10.8v.6c0,6.1-1.9,14.6-14,14.6s-14.3-6.7-14.3-16v-15.5c0-7.5,3.5-15.6,14.4-15.6,9.6,0,14,5.7,14,15.5v10.8h-17.3Zm6.5-7.9v-4.5c0-3.5-.8-5.1-3.2-5.1-2.1,0-3.3,1.5-3.3,5.1v4.5h6.5Z"/>
	<path d="m460.7,259.6v34.1c0,1.6,1.9,3.2,3.4,3.2,1.9,0,3.6-1.5,3.6-3.2v-34.1h11v33.4c0,9.6-6.5,12.2-14.8,12.2s-14.3-3.5-14.3-12.4v-33.2h11.1Z"/>
	<path d="m483,259.6h10.2v19h.3c1-3.7,2.8-12.6,4.2-19h11.7l-6.6,17.5,6.7,27.5h-11.5l-2.6-17.6-2.1,5.3v12.3h-10.3v-45h0Z"/>
	<path d="m541.3,273.3v17.1c0,10.1-5.4,14.9-14.6,14.9s-14.3-4.9-14.3-14.9v-17.6c0-10.2,6.2-14.5,14.4-14.5,8.8.1,14.5,4.7,14.5,15Zm-17.7-.9v18.7c0,3,.8,5,3.3,5s3.2-1.9,3.2-5.1v-18.7c0-2.7-.7-4.7-3.3-4.7-2.2,0-3.2,1.7-3.2,4.8Z"/>
	<path d="m573.2,288.5v1.6c0,8.7-2.4,15.3-13.7,15.3-10.7,0-13.4-6.3-13.4-16.3v-15.6c0-7.9,3-15.1,13.9-15.1,11.8,0,13.3,7.9,13.3,14.1v2.2h-10.7v-2.7c0-3-.4-4.7-2.7-4.7s-2.7,1.7-2.7,4.6v19.9c0,2.6.4,4.6,2.7,4.6s2.7-1.9,2.7-4.9v-3h10.6Z"/>
	<path d="m588,259.1c1.7,12,3.6,26.2,3.9,32.1h.4c.6-7.3,1.9-16.1,4.1-32.1h11.4c-.6,2.5-8.3,39.4-9.9,46.5-2.6,11.7-6,14.4-13.7,14.4-2,0-3.7-.2-5.2-.4l.1-9.5c.4,0,1.5.2,2.6.2,2.6,0,4.1-.7,4.6-3.9l-10.3-47.4h12v.1Z"/>
	<path d="m610.3,259.1h4.5v-8.8h11.1v8.8h5.2v9.8h-5.2v23.7c0,2.1.3,3.3,2.9,3.3.6,0,1.5,0,2-.2v8.6c-1.9.8-4.7.9-6.4.9-6.8,0-9.7-2.4-9.7-10.4v-26h-4.4v-9.7h0Z"/>
	<path d="m645.2,284.7v6.7c0,3,.7,5.1,3.2,5.1,2.7,0,3.2-2.3,3.2-5.2v-1h10.8v.6c0,6.1-1.9,14.6-14,14.6s-14.3-6.7-14.3-16v-15.5c0-7.5,3.5-15.6,14.4-15.6,9.6,0,14,5.7,14,15.5v10.8h-17.3Zm6.6-7.9v-4.5c0-3.5-.8-5.1-3.2-5.1-2.1,0-3.3,1.5-3.3,5.1v4.5h6.5Z"/>
	<path d="m683.4,276.9h-16.4v9.4h16.4v-9.4Z"/>
	<path d="m688.7,246.9h11.1v48.1h14l-1,9.7h-24.2v-57.8h.1Z"/>
	<path d="m745.2,294.2c0,4.1,0,8.4.3,10.4h-10.4c-.3-.7-.6-2.6-.7-3.3-1.8,2.9-4.4,4-7.8,4-7,0-9.8-6.4-9.8-13.4v-.8c0-11.7,8-14.5,16.4-14.5h.8v-5.3c0-3.1-.4-4.5-2.5-4.5s-2.6,1.5-2.6,4.2v1.1h-10.7v-.7c0-7.9,3.6-13,13.8-13,9.1,0,13.2,4.3,13.2,12.2v23.6h0Zm-11-9.8h-1.1c-3.3,0-5.4,1.5-5.4,6.2v.6c0,3.2,1,4.8,3.2,4.8s3.3-1.6,3.3-6.2v-5.4h0Z"/>
	<path d="m751.7,250.3h11.2v12.6c1.9-3.2,4.9-4.4,8.1-4.4,6.8,0,9.6,5.2,9.6,13.6v16.6c0,9.8-1.6,16.9-10.6,16.9-4.5,0-6.5-2.3-7.5-4.7,0,1.6-.2,2.9-.3,3.9h-10.5c.1-2.7.1-7.8.1-11.4l-.1-43.1h0Zm17.7,39.5v-15.9c0-3.4-.4-5.8-3.1-5.8s-3.4,2-3.4,6v15.9c0,4.2,1.1,5.8,3.3,5.8,1.9,0,3.2-1.5,3.2-6"/>
	<text class="cls-1" transform="translate(381.79 304.6)">
		<tspan class="cls-5" x="0" y="0">L</tspan>
		<tspan x="29.37" y="0">eu</tspan>
		<tspan class="cls-4" x="96.44" y="0">k</tspan>
		<tspan class="cls-11" x="128.9" y="0">o</tspan>
		<tspan class="cls-12" x="162.22" y="0">c</tspan>
		<tspan class="cls-6" x="194.16" y="0">y</tspan>
		<tspan class="cls-10" x="227.99" y="0">t</tspan>
		<tspan class="cls-7" x="249.29" y="0">e</tspan>
		<tspan class="cls-9" x="282.09" y="0">-</tspan>
		<tspan class="cls-3" x="302.02" y="0">L</tspan>
		<tspan x="331.64" y="0">ab</tspan>
	</text>
	<text class="cls-2" transform="translate(376.21 191.86)">
		<tspan class="cls-13" x="0" y="0">LK</tspan>
		<tspan class="cls-8" x="283.18" y="0">C</tspan>
	</text>
</svg>