<?xml version="1.0" encoding="UTF-8"?><svg id="Layer_1" xmlns="http://www.w3.org/2000/svg" viewBox="0 0 536 92"><defs><style>.cls-1{letter-spacing:.01em;}.cls-2{letter-spacing:0em;}.cls-3{letter-spacing:0em;}.cls-4{letter-spacing:.03em;}.cls-5{fill:none;font-family:AcuminConcept-ExtraCondensedBlack, 'Acumin Variable Concept';font-size:91.2px;font-variation-settings:'wght' 800, 'wdth' 50, 'slnt' 0;font-weight:800;}.cls-6{letter-spacing:0em;}.cls-7{letter-spacing:0em;}.cls-8{letter-spacing:0em;}.cls-9{letter-spacing:0em;}.cls-10{letter-spacing:.01em;}</style></defs><path d="m116.4,7.2v62h25.9l1.1-10.4h-15V7.2h-12Z"/><path d="m158.8,47.8v7.2c0,3.2.7,5.4,3.4,5.4,2.9,0,3.4-2.5,3.4-5.6v-1.1h11.6v.7c0,6.6-2,15.6-14.9,15.6s-15.3-7.2-15.3-17.2v-16.6c0-8,3.7-16.7,15.4-16.7,10.3,0,15,6.2,15,16.6v11.7h-18.6Zm7.1-8.5v-4.8c0-3.8-.8-5.5-3.5-5.5-2.3,0-3.5,1.6-3.5,5.5v4.8h7Z"/><path d="m193.4,20.9v36.6c0,1.7,2,3.4,3.7,3.4,2,0,3.8-1.6,3.8-3.4V20.9h11.8v35.9c0,10.2-7,13.1-15.8,13.1s-15.3-3.8-15.3-13.3V20.9h11.8Z"/><path d="m217.3,20.9h11v20.4h.3c1-4,3-13.6,4.5-20.4h12.5l-7.1,18.8,7.1,29.6h-12.4l-2.8-18.9-2.3,5.7v13.2h-11l.2-48.4h0Z"/><path d="m279.7,35.6v18.4c0,10.8-5.8,16-15.6,16s-15.3-5.3-15.3-16v-18.8c0-11,6.6-15.6,15.5-15.6,9.3-.1,15.4,4.9,15.4,16Zm-19-1v20.1c0,3.2.9,5.4,3.6,5.4s3.4-2.1,3.4-5.5v-20.1c0-2.9-.7-5.1-3.5-5.1-2.4,0-3.5,1.9-3.5,5.2Z"/><path d="m313.9,51.9v1.7c0,9.3-2.6,16.4-14.7,16.4s-14.3-6.8-14.3-17.5v-16.8c0-8.5,3.2-16.2,14.9-16.2,12.7,0,14.3,8.5,14.3,15.2v2.4h-11.5v-2.9c0-3.3-.5-5-2.8-5s-2.9,1.8-2.9,5v21.3c0,2.8.5,5,2.9,5s2.8-2,2.8-5.3v-3.2l11.3-.1h0Z"/><path d="m329.6,20.3c1.9,12.8,3.9,28.1,4.2,34.4h.4c.7-7.9,2-17.2,4.4-34.4h12.2c-.7,2.7-8.9,42.4-10.6,49.9-2.8,12.6-6.4,15.5-14.7,15.5-2.2,0-4-.2-5.6-.4l.1-10.2c.4,0,1.7.2,2.8.2,2.8,0,4.4-.8,4.9-4.1l-11-50.9h12.9Z"/><path d="m353.5,20.3h4.9v-9.4h11.9v9.4h5.6v10.6h-5.6v25.4c0,2.2.3,3.6,3.1,3.6.7,0,1.6-.1,2.1-.2v9.3c-2.1.8-5.1,1-6.9,1-7.2,0-10.3-2.6-10.3-11.1v-28h-4.7l-.1-10.6h0Z"/><path d="m390.9,47.8v7.2c0,3.2.7,5.4,3.4,5.4,2.9,0,3.4-2.5,3.4-5.6v-1.1h11.6v.7c0,6.6-2,15.6-14.9,15.6s-15.3-7.2-15.3-17.2v-16.6c0-8,3.7-16.7,15.4-16.7,10.3,0,15,6.2,15,16.6v11.7h-18.6Zm7.1-8.5v-4.8c0-3.8-.8-5.5-3.5-5.5-2.3,0-3.5,1.6-3.5,5.5v4.8h7Z"/><path d="m431.7,39.4h-17.5v10.1h17.5v-10.1Z"/><path d="m437.4,7.2h11.9v51.6h15l-1.1,10.4h-25.9V7.2h.1Z"/><path d="m498,58c0,4.4.1,9,.3,11.2h-11.1c-.3-.8-.6-2.8-.7-3.6-1.9,3.1-4.7,4.3-8.4,4.3-7.5,0-10.5-6.9-10.5-14.4v-.9c0-12.5,8.5-15.5,17.6-15.5h.8v-5.7c0-3.3-.5-4.8-2.7-4.8s-2.7,1.6-2.7,4.5v1.1h-11.5v-.7c0-8.5,3.9-14,14.7-14,9.7,0,14.1,4.6,14.1,13.1v25.4h.1Zm-11.8-10.5h-1.2c-3.5,0-5.8,1.5-5.8,6.7v.6c0,3.4,1.1,5.1,3.4,5.1s3.5-1.7,3.5-6.7v-5.7h.1Z"/><path d="m504.9,10.8h11.9v13.5c2-3.4,5.2-4.8,8.7-4.8,7.3,0,10.2,5.6,10.2,14.6v17.8c0,10.6-1.8,18.1-11.4,18.1-4.8,0-6.9-2.5-8-5-.1,1.7-.2,3.1-.3,4.2h-11.2c.2-2.9.1-8.3.1-12.2V10.8h0Zm19,42.4v-17.1c0-3.7-.4-6.2-3.3-6.2s-3.7,2.2-3.7,6.5v17.1c0,4.5,1.1,6.2,3.5,6.2,2.1,0,3.5-1.6,3.5-6.5Z"/><path d="m41.1,5.3l-13.4,7.7c-.4.2-.7.7-.6,1.2l.7,22.5c0,.5.3.9.7,1.1l16.6,8.1c.4.2.8.2,1.2,0l16.6-8.1c.4-.2.7-.6.7-1.1l.8-22.7c0-.4-.2-.8-.5-1.1L47.6.3C47.4.2,47.6-.1,47.8,0l21.1,12.2c.8.5,1.3,1.3,1.3,2.3v25.2c0,.9-.5,1.8-1.3,2.3l-21.9,12.5c-.8.5-1.8.5-2.6,0l-21.8-12.6c-.8-.5-1.3-1.3-1.3-2.3V14.6c0-1.1.6-2,1.6-2.4l18-7.6c.3-.1.6.5.2.7Z"/><path d="m40.3,75.2l-15.2,7.4c-.4.2-.8.2-1.2,0l-16.6-8.1c-.4-.2-.7-.6-.7-1.1l-.7-22.6c0-.5.2-.9.6-1.2l11.3-6.5c.2-.1,0-.4-.1-.3l-16,6.2c-1,.4-1.7,1.3-1.7,2.4v24.9c0,.9.5,1.8,1.3,2.3l21.8,12.6c.8.5,1.8.5,2.6,0l17.7-10.2-1.3-.8c-1.2-.7-2-2-1.9-3.4l.1-1.6h0Z"/><path d="m42.7,55.8l-.2,20.5c0,.9.5,1.8,1.3,2.3l21.8,12.6c.8.5,1.8.5,2.6,0l21.6-12.5c.9-.5,1.4-1.5,1.3-2.6l-2.7-22c0-.2-.3-.2-.3,0v18.1c0,.5-.3.9-.7,1.2l-19.9,9.9c-.4.2-.8.2-1.2,0l-16.6-8.9c-.4-.2-.7-.7-.7-1.1l-.2-17.5-1.2.7c-1.2.6-2.6.6-3.8,0l-1.1-.7h0Z"/><path d="m16.3,59.9l.2,7.8c0,.5.3.9.7,1.1l6.8,3.2c.4.2.8.2,1.2,0l6.7-3.3c.4-.2.7-.6.7-1.1l.2-7.8c0-.5-.2-1-.7-1.2l-7-3.6c-.4-.2-.8-.2-1.2,0l-6.9,3.7c-.4.2-.7.7-.7,1.2Z"/><path d="m54.8,23l-.3,8c0,.7-.5,1.4-1.1,1.7l-6.9,3.4c-.6.3-1.2.3-1.7,0l-6.9-3.4c-.6-.3-1.1-1-1.1-1.7l-.3-8c0-.7.4-1.4,1-1.8l7.2-3.8c.6-.3,1.3-.3,1.8,0l7.2,3.8c.7.4,1.1,1,1.1,1.8"/><text class="cls-5" transform="translate(112.38 68.99)"><tspan class="cls-2" x="0" y="0">L</tspan><tspan x="31.19" y="0">eu</tspan><tspan class="cls-3" x="102.41" y="0">k</tspan><tspan class="cls-9" x="136.88" y="0">o</tspan><tspan class="cls-10" x="172.27" y="0">c</tspan><tspan class="cls-4" x="206.19" y="0">y</tspan><tspan class="cls-7" x="242.12" y="0">t</tspan><tspan class="cls-6" x="264.74" y="0">e</tspan><tspan class="cls-8" x="299.57" y="0">-</tspan><tspan class="cls-1" x="320.73" y="0">L</tspan><tspan x="352.19" y="0">ab</tspan></text></svg>