<svg width="250" height="35" viewBox="0 0 250 35" fill="none"
  xmlns="http://www.w3.org/2000/svg">
  <path d="M50.5017 0L8.58893 34.9991H0V29.8547L35.75 0H50.5017Z" fill="white"/>
  <path d="M21.1516 0L0 17.6685V5.34249L6.39987 0H21.1516Z" fill="white"/>
  <path d="M79.9637 0L38.0508 34.9991H23.2852L65.2119 0H79.9637Z" fill="white"/>
  <path d="M109.215 0L67.3023 34.9991H52.5366L94.4634 0H109.215Z" fill="white"/>
  <path d="M138.665 0L96.7519 34.9991H82.0001L123.913 0H138.665Z" fill="white"/>
  <path d="M168.223 0L126.31 34.9991H111.559L153.471 0H168.223Z" fill="white"/>
  <path d="M197.67 0L155.758 34.9991H141.006L182.933 0H197.67Z" fill="white"/>
  <path d="M226.938 0L185.012 34.9991H170.26L212.187 0H226.938Z" fill="white"/>
  <path d="M250 0V5.34249L214.473 34.9991H199.708L241.634 0H250Z" fill="white"/>
  <path d="M250 17.5295V29.8439L243.823 35H229.072L250 17.5295Z" fill="white"/>
</svg>
