<svg width="206" height="208" viewBox="0 0 206 208" fill="none"
  xmlns="http://www.w3.org/2000/svg">
  <path fill-rule="evenodd" clip-rule="evenodd" d="M182.739 116.155L133.4 155.748C132.292 156.883 131.006 157.868 129.556 158.7C124.981 161.326 119.182 162.166 113.413 162.561C107.484 162.968 99.9739 162.968 91.017 162.968H90.688C85.9499 162.968 82.109 159.393 82.109 154.983C82.109 150.574 85.9499 146.999 90.688 146.999C100.049 146.999 106.928 146.994 112.152 146.635C116.839 146.314 119.087 145.752 120.128 145.313L120.802 144.772C120.939 144.386 121.139 143.531 121.139 141.876L121.139 141.855C120.239 141.535 118.409 141.119 114.775 140.696C113.307 140.525 111.66 140.364 109.851 140.187C101.463 139.365 89.5871 138.203 75.9349 134.144C53.8238 127.57 40.9804 135.114 38.3769 137.676L38.3266 137.725L14.7611 160.519C11.4759 163.697 6.04502 163.794 2.63077 160.737C-0.783483 157.679 -0.888157 152.625 2.39697 149.447L25.94 126.674C33.4761 119.287 53.3439 110.664 81.156 118.932C92.9684 122.444 102.816 123.421 111.177 124.25C113.169 124.448 115.076 124.637 116.906 124.85C121.199 125.351 126.427 126.101 130.552 128.423C132.471 129.503 134.243 130.96 135.612 132.888L171.676 103.947C174.137 102.024 178.202 99.8545 183.114 99.1963C188.417 98.4857 194.603 99.5981 199.88 104.286C205.214 109.024 206.626 114.785 205.766 119.867C204.987 124.471 202.444 128.198 200.281 130.394L200.209 130.467L155.755 174.487C148.839 181.894 129.438 192.528 98.7486 191.397C72.4734 190.428 56.0673 201.152 51.944 205.381C48.76 208.647 43.3345 208.892 39.8257 205.928C36.3169 202.965 36.0535 197.916 39.2374 194.65C46.7646 186.929 68.0682 174.285 99.4276 175.44C126.142 176.425 140.11 166.959 142.842 163.971C142.934 163.871 143.028 163.773 143.124 163.677L187.654 119.581C187.81 119.418 188.086 119.08 188.343 118.623C188.609 118.151 188.76 117.72 188.817 117.383C188.869 117.077 188.836 116.907 188.8 116.802C188.771 116.719 188.646 116.382 188.033 115.838C187.419 115.292 186.969 115.119 186.708 115.048C186.416 114.969 186.049 114.937 185.559 115.002C185.047 115.071 184.47 115.24 183.893 115.497C183.334 115.747 182.93 116.01 182.739 116.155Z" fill="white"/>
  <path fill-rule="evenodd" clip-rule="evenodd" d="M90.5584 41.2624V33.4028C90.5685 30.154 91.9274 27.041 94.3381 24.7437C96.7487 22.4465 100.015 21.1516 103.425 21.1419L103.438 25.3672L103.451 21.1419C106.86 21.1516 110.127 22.4465 112.538 24.7437C114.948 27.041 116.307 30.154 116.317 33.4028L116.317 33.4154L116.317 41.2624H120.329C122.778 41.2624 124.763 43.1541 124.763 45.4877V65.6083C124.763 67.9419 122.778 69.8336 120.329 69.8336H86.5467C84.0979 69.8336 82.1128 67.9419 82.1128 65.6083V45.4877C82.1128 43.1541 84.0979 41.2624 86.5467 41.2624H90.5584ZM100.609 30.7192C101.36 30.0036 102.376 29.5989 103.438 29.5925C104.5 29.5989 105.516 30.0036 106.267 30.7192C107.02 31.4366 107.445 32.4084 107.45 33.4228V41.2624H99.4262V33.4228C99.4308 32.4084 99.8557 31.4367 100.609 30.7192ZM90.9806 49.713V61.383H115.895V49.713H90.9806Z" fill="white"/>
  <path fill-rule="evenodd" clip-rule="evenodd" d="M104.4 1.12212C103.767 0.987966 103.11 0.987966 102.477 1.12212L64.4715 9.17035C62.4428 9.59996 60.9995 11.3146 60.9995 13.295V53.5362C60.9995 64.2621 65.4707 74.5488 73.4296 82.1332C81.3884 89.7176 92.1829 93.9785 103.438 93.9785C114.694 93.9785 125.489 89.7176 133.447 82.1332C141.406 74.5488 145.878 64.2621 145.878 53.5362V13.295C145.878 11.3146 144.434 9.59996 142.405 9.17035L104.4 1.12212ZM69.8673 53.5362V16.6845L103.438 9.57521L137.01 16.6845V53.5362C137.01 62.0209 133.473 70.1581 127.177 76.1577C120.881 82.1573 112.342 85.5279 103.438 85.5279C94.5348 85.5279 85.9959 82.1573 79.7001 76.1577C73.4043 70.1581 69.8673 62.0209 69.8673 53.5362Z" fill="white"/>
  <path fill-rule="evenodd" clip-rule="evenodd" d="M104.172 2.11978C103.689 2.01742 103.188 2.01742 102.705 2.11978L64.6994 10.168C63.1503 10.4961 62.0604 11.8011 62.0604 13.295V53.5362C62.0604 63.9878 66.4172 74.0135 74.1759 81.4072C81.935 88.8012 92.4608 92.957 103.438 92.957C114.416 92.957 124.942 88.8012 132.701 81.4072C140.46 74.0135 144.817 63.9878 144.817 53.5362V13.295C144.817 11.8011 143.727 10.4961 142.178 10.168L104.172 2.11978ZM102.249 0.124464C103.032 -0.0414881 103.845 -0.0414881 104.628 0.124464L142.633 8.17269C145.142 8.70384 146.938 10.8282 146.938 13.295V53.5362C146.938 64.5365 142.353 75.0841 134.194 82.8592C126.035 90.634 114.972 95 103.438 95C91.9051 95 80.8418 90.634 72.6832 82.8592C64.5242 75.0841 59.9385 64.5365 59.9385 53.5362V13.295C59.9385 10.8282 61.7354 8.70384 64.2436 8.17269L102.249 0.124464ZM103.211 8.57755C103.361 8.54576 103.516 8.54576 103.666 8.57755L137.238 15.6868C137.724 15.7898 138.071 16.2049 138.071 16.6845V53.5362C138.071 62.2952 134.419 70.6934 127.923 76.8837C121.428 83.0737 112.62 86.5494 103.438 86.5494C94.257 86.5494 85.4493 83.0737 78.9537 76.8837C72.4577 70.6934 68.8063 62.2952 68.8063 53.5362V16.6845C68.8063 16.2049 69.1529 15.7898 69.6394 15.6868L103.211 8.57755ZM70.9283 17.5057V53.5362C70.9283 61.7466 74.3508 69.6228 80.4464 75.4317C86.5425 81.2409 94.8127 84.5064 103.438 84.5064C112.064 84.5064 120.334 81.2409 126.431 75.4317C132.526 69.6228 135.949 61.7466 135.949 53.5362V17.5057L103.438 10.6211L70.9283 17.5057ZM103.438 20.1204C103.443 20.1204 103.449 20.1204 103.454 20.1204C107.14 20.1309 110.674 21.5308 113.284 24.0177C115.894 26.5049 117.367 29.8776 117.378 33.3996V33.3996L117.378 33.4154L117.378 40.2409H120.329C123.353 40.2409 125.824 42.5801 125.824 45.4877V65.6083C125.824 68.5159 123.353 70.8551 120.329 70.8551H86.5467C83.5223 70.8551 81.0518 68.5159 81.0518 65.6083V45.4877C81.0518 42.5801 83.5223 40.2409 86.5467 40.2409H89.4974V33.4028L89.4974 33.3997C89.5084 29.8776 90.9816 26.505 93.5917 24.0177C96.2014 21.5308 99.7355 20.1309 103.421 20.1204C103.427 20.1204 103.432 20.1204 103.438 20.1204ZM102.377 25.3641V25.3702C102.379 25.9332 102.853 26.3887 103.438 26.3887C104.023 26.3887 104.497 25.9332 104.499 25.3702V25.3641L104.509 22.2117C107.251 22.4543 109.831 23.6014 111.791 25.4697C114.003 27.577 115.247 30.4303 115.256 33.4059L115.256 33.4154L115.256 33.4185L115.256 41.2624C115.256 41.5333 115.368 41.7932 115.567 41.9847C115.766 42.1763 116.036 42.2839 116.317 42.2839H120.329C122.202 42.2839 123.702 43.7282 123.702 45.4877V65.6083C123.702 67.3678 122.202 68.8121 120.329 68.8121H86.5467C84.6736 68.8121 83.1738 67.3678 83.1738 65.6083V45.4877C83.1738 43.7282 84.6736 42.2839 86.5467 42.2839H90.5584C91.1443 42.2839 91.6193 41.8266 91.6193 41.2624V33.4046C91.629 30.4295 92.8734 27.5767 95.0844 25.4697C97.045 23.6014 99.6245 22.4543 102.367 22.2117L102.377 25.3641ZM103.444 28.571C104.782 28.579 106.064 29.0887 107.014 29.9932C107.965 30.9003 108.505 32.1311 108.51 33.4183L108.511 33.4228L108.51 41.2624C108.51 41.8266 108.035 42.2839 107.45 42.2839H99.4262C98.8403 42.2839 98.3652 41.8266 98.3652 41.2624V33.4228L98.3653 33.4184C98.3711 32.1312 98.9103 30.9003 99.8622 29.9932C100.811 29.0887 102.094 28.579 103.431 28.571H103.444ZM103.438 30.6141C102.654 30.6204 101.906 30.9199 101.355 31.4452C100.802 31.9724 100.491 32.6841 100.487 33.4249V40.2409H106.389V33.4248C106.384 32.684 106.074 31.9724 105.521 31.4452C104.97 30.9199 104.222 30.6204 103.438 30.6141ZM89.9197 49.713C89.9197 49.1489 90.3947 48.6915 90.9806 48.6915H115.895C116.481 48.6915 116.956 49.1489 116.956 49.713V61.383C116.956 61.9471 116.481 62.4045 115.895 62.4045H90.9806C90.3947 62.4045 89.9197 61.9471 89.9197 61.383V49.713ZM92.0416 50.7345V60.3615H114.834V50.7345H92.0416Z" fill="white"/>
</svg>
