<svg width="236" height="142" viewBox="0 0 236 142" fill="none"
  xmlns="http://www.w3.org/2000/svg">
  <path d="M100.374 0.220861L81.5306 19.0309C75.8888 20.577 70.6525 23.4114 66.2275 27.3132L56.4188 36.0373C52.6575 39.387 47.7531 41.2275 42.7013 41.2275H35.4V88.3447C42.9225 88.5656 50.0763 91.6208 55.4231 96.9583L68.5506 110.063L71.1319 112.64L81.0881 122.578C83.3744 124.861 87.1356 124.861 89.4219 122.578C90.0488 121.953 90.5281 121.216 90.7862 120.443C91.8187 117.609 94.2156 115.474 97.1656 114.811C100.116 114.149 103.213 115.032 105.352 117.204L109.334 121.106C113.612 125.376 120.544 125.376 124.785 121.106C126.776 119.118 127.846 116.578 127.956 113.965C128.104 110.725 130.021 107.854 132.971 106.455C135.921 105.057 139.351 105.351 141.969 107.228C145.435 109.695 150.266 109.363 153.363 106.271C156.829 102.811 156.829 97.216 153.363 93.7926L125.412 65.8904L112.211 78.0378C102.144 87.314 86.6931 87.4613 76.4419 78.3691C64.7525 67.9886 64.4944 49.878 75.8519 39.1662L101.701 14.7977C111.805 5.30068 125.154 0 139.056 0C152.368 0 165.237 4.89577 175.156 13.6934L186.256 23.5586H200.6H215.35H230.1C233.345 23.5586 236 26.2089 236 29.4482V106.014C236 112.529 230.727 117.793 224.2 117.793H212.4C208.049 117.793 204.214 115.437 202.186 111.903H170.879C169.625 114.37 167.966 116.725 165.901 118.787C159.595 125.081 150.856 127.548 142.669 126.186C141.342 128.873 139.535 131.376 137.286 133.621C127.219 143.671 111.473 144.664 100.263 136.603C91.0075 144.26 77.2162 143.781 68.5506 135.094L58.6313 125.155L56.05 122.578L42.9225 109.474C40.8944 107.449 38.2394 106.271 35.4 106.05C35.4 112.529 30.09 117.793 23.6 117.793H11.8C5.27312 117.793 0 112.529 0 106.014V29.4482C0 26.2089 2.655 23.5586 5.9 23.5586H20.65H35.4H42.7013C43.4388 23.5586 44.1394 23.3009 44.6556 22.8224L54.4275 14.1352C64.7156 5.04301 77.9538 0 91.7081 0H95.5062C97.1288 0 98.7881 0.07362 100.374 0.220861ZM200.6 94.2344V41.2275H182.9C180.724 41.2275 178.623 40.4177 177.037 38.9821L163.43 26.9083C156.719 20.9451 148.053 17.6689 139.056 17.6689C129.689 17.6689 120.692 21.2395 113.87 27.6445L88.0206 52.013C84.2225 55.6204 84.2962 61.6941 88.205 65.1542C91.6344 68.2095 96.8338 68.1359 100.189 65.0438L126.703 40.6018C130.279 37.2888 135.884 37.5097 139.203 41.1171C142.522 44.7245 142.301 50.2829 138.687 53.5958L138.392 53.8903L165.827 81.2771C169.514 84.9582 171.911 89.4858 172.981 94.1976H200.6V94.2344ZM23.6 100.124C23.6 98.562 22.9784 97.0639 21.8719 95.9594C20.7655 94.8549 19.2648 94.2344 17.7 94.2344C16.1352 94.2344 14.6345 94.8549 13.5281 95.9594C12.4216 97.0639 11.8 98.562 11.8 100.124C11.8 101.686 12.4216 103.184 13.5281 104.289C14.6345 105.393 16.1352 106.014 17.7 106.014C19.2648 106.014 20.7655 105.393 21.8719 104.289C22.9784 103.184 23.6 101.686 23.6 100.124ZM218.3 106.014C219.865 106.014 221.365 105.393 222.472 104.289C223.578 103.184 224.2 101.686 224.2 100.124C224.2 98.562 223.578 97.0639 222.472 95.9594C221.365 94.8549 219.865 94.2344 218.3 94.2344C216.735 94.2344 215.235 94.8549 214.128 95.9594C213.022 97.0639 212.4 98.562 212.4 100.124C212.4 101.686 213.022 103.184 214.128 104.289C215.235 105.393 216.735 106.014 218.3 106.014Z" fill="white"/>
</svg>
