<svg width="1920" height="632" viewBox="0 0 1920 632" fill="none"
  xmlns="http://www.w3.org/2000/svg">
  <g opacity="0.15">
    <path d="M235.219 73H6V69.1864H233.903L286.748 6L289 8.69399L235.219 73Z" fill="white"/>
    <path d="M6 77C2.67647 77 0 74.2941 0 71C0 67.7059 2.70588 65 6 65C9.29412 65 12 67.7059 12 71C12 74.2941 9.29412 77 6 77Z" fill="white"/>
    <path d="M292.24 11.2396C294.587 8.89242 294.587 5.10758 292.24 2.76039C289.892 0.413203 286.108 0.413203 283.76 2.76039C281.413 5.10758 281.413 8.89242 283.76 11.2396C286.108 13.5868 289.892 13.5868 292.24 11.2396Z" fill="white"/>
    <path d="M294.211 108H202V104.199H292.894L362.717 21H627V24.8008H364.034L294.211 108Z" fill="white"/>
    <path d="M203 111C199.676 111 197 108.294 197 105C197 101.706 199.706 99 203 99C206.294 99 209 101.706 209 105C209 108.294 206.294 111 203 111Z" fill="white"/>
    <path d="M627 28C630.324 28 633 25.2941 633 22C633 18.7059 630.294 16 627 16C623.706 16 621 18.7059 621 22C621 25.2941 623.706 28 627 28Z" fill="white"/>
    <path d="M1058 140H737.802L691.679 84.8166H389V81H692.995L739.118 136.218H1058V140Z" fill="white"/>
    <path d="M390 88C386.676 88 384 85.2941 384 82C384 78.7059 386.706 76 390 76C393.294 76 396 78.7059 396 82C396 85.2941 393.294 88 390 88Z" fill="white"/>
    <path d="M1058 143C1061.32 143 1064 140.294 1064 137C1064 133.706 1061.29 131 1058 131C1054.71 131 1052 133.706 1052 137C1052 140.294 1054.71 143 1058 143Z" fill="white"/>
    <path d="M1101.6 114H778V110.199H1100.29L1167.51 30H1394V33.7659H1168.83L1101.6 114Z" fill="white"/>
    <path d="M778 117C774.677 117 772 114.294 772 111C772 107.706 774.706 105 778 105C781.294 105 784 107.706 784 111C784 114.294 781.294 117 778 117Z" fill="white"/>
    <path d="M1394 37C1397.32 37 1400 34.2941 1400 31C1400 27.7059 1397.29 25 1394 25C1390.71 25 1388 27.7059 1388 31C1388 34.2941 1390.71 37 1394 37Z" fill="white"/>
    <path d="M1149.27 174H925V170.21H1147.96L1223.97 79H1463.28L1511.28 136.554H1766V140.38H1509.96L1461.97 82.7902H1225.29L1149.27 174Z" fill="white"/>
    <path d="M925 177C921.676 177 919 174.294 919 171C919 167.706 921.706 165 925 165C928.294 165 931 167.706 931 171C931 174.294 928.294 177 925 177Z" fill="white"/>
    <path d="M1765 143C1768.32 143 1771 140.294 1771 137C1771 133.706 1768.29 131 1765 131C1761.71 131 1759 133.706 1759 137C1759 140.294 1761.71 143 1765 143Z" fill="white"/>
    <path d="M245.035 619H31V615.18H243.72L343.303 495.696H567.328L638.751 410L641 412.699L568.642 499.516H344.617L245.035 619Z" fill="white"/>
    <path d="M31 622C27.6765 622 25 619.294 25 616C25 612.706 27.7059 610 31 610C34.2941 610 37 612.706 37 616C37 619.294 34.2941 622 31 622Z" fill="white"/>
    <path d="M644.24 414.24C646.587 411.892 646.587 408.108 644.24 405.76C641.892 403.413 638.108 403.413 635.76 405.76C633.413 408.108 633.413 411.892 635.76 414.24C638.108 416.587 641.892 416.587 644.24 414.24Z" fill="white"/>
    <path d="M1179.81 221H774.757L682.573 110.776H382.334L349.929 149.51H26V145.699H348.613L381.017 107H683.889L776.073 217.224H1178.5L1253.75 127.241L1256 129.933L1179.81 221Z" fill="white"/>
    <path d="M27 152C23.6765 152 21 149.294 21 146C21 142.706 23.7059 140 27 140C30.2941 140 33 142.706 33 146C33 149.294 30.2941 152 27 152Z" fill="white"/>
    <path d="M1258.24 132.24C1260.59 129.892 1260.59 126.108 1258.24 123.76C1255.89 121.413 1252.11 121.413 1249.76 123.76C1247.41 126.108 1247.41 129.892 1249.76 132.24C1252.11 134.587 1255.89 134.587 1258.24 132.24Z" fill="white"/>
    <path d="M650.306 263H332.486L308 233.592L310.25 230.886L333.801 259.17H648.991L699.862 198H728V201.83H701.206L650.306 263Z" fill="white"/>
    <path d="M304.76 236.24C302.413 233.892 302.413 230.108 304.76 227.76C307.108 225.413 310.892 225.413 313.24 227.76C315.587 230.108 315.587 233.892 313.24 236.24C310.892 238.587 307.108 238.587 304.76 236.24Z" fill="white"/>
    <path d="M728 207C731.324 207 734 203.843 734 200C734 196.157 731.294 193 728 193C724.706 193 722 196.157 722 200C722 203.843 724.706 207 728 207Z" fill="white"/>
    <path d="M616.066 213H345.871L323.462 186.099H102V182.311H324.777L347.186 209.177H614.751L645.75 172L648 174.666L616.066 213Z" fill="white"/>
    <path d="M103 189C99.6765 189 97 186.294 97 183C97 179.706 99.7059 177 103 177C106.294 177 109 179.706 109 183C109 186.294 106.294 189 103 189Z" fill="white"/>
    <path d="M651.24 177.946C653.587 175.208 653.587 170.792 651.24 168.054C648.892 165.315 645.108 165.315 642.76 168.054C640.413 170.792 640.413 175.208 642.76 177.946C645.108 180.685 648.892 180.685 651.24 177.946Z" fill="white"/>
    <path d="M688.246 349H325.233L240 246.703L242.223 244L326.549 345.174H686.93L756.748 261.377L759 264.08L688.246 349Z" fill="white"/>
    <path d="M236.76 248.24C234.413 245.892 234.413 242.108 236.76 239.76C239.108 237.413 242.892 237.413 245.24 239.76C247.587 242.108 247.587 245.892 245.24 248.24C242.892 250.587 239.108 250.587 236.76 248.24Z" fill="white"/>
    <path d="M761.24 265.24C763.587 262.892 763.587 259.108 761.24 256.76C758.892 254.413 755.108 254.413 752.76 256.76C750.413 259.108 750.413 262.892 752.76 265.24C755.108 267.587 758.892 267.587 761.24 265.24Z" fill="white"/>
    <path d="M677.85 316H336.533L261.821 226.308H44V222.483H263.136L337.848 312.175H676.534L735.374 241.537H1208.93L1309.33 121H1443V124.825H1310.65L1210.24 245.362H736.69L677.85 316Z" fill="white"/>
    <path d="M45 229C41.6765 229 39 226.294 39 223C39 219.706 41.7059 217 45 217C48.2941 217 51 219.706 51 223C51 226.294 48.2941 229 45 229Z" fill="white"/>
    <path d="M1443 128C1446.31 128 1449 125.314 1449 122C1449 118.686 1446.31 116 1443 116C1439.69 116 1437 118.686 1437 122C1437 125.314 1439.69 128 1443 128Z" fill="white"/>
    <path d="M955.407 591H660.606L595 512.236L597.252 509.533L661.922 587.172H954.091L1062.52 457H1293V460.828H1063.83L955.407 591Z" fill="white"/>
    <path d="M591.76 514.24C589.413 511.892 589.413 508.108 591.76 505.76C594.108 503.413 597.892 503.413 600.24 505.76C602.587 508.108 602.587 511.892 600.24 514.24C597.892 516.587 594.108 516.587 591.76 514.24Z" fill="white"/>
    <path d="M1292 464C1295.32 464 1298 461.294 1298 458C1298 454.706 1295.29 452 1292 452C1288.71 452 1286 454.706 1286 458C1286 461.294 1288.71 464 1292 464Z" fill="white"/>
    <path d="M537.794 450L535.546 447.318L591.349 380.761H334V377H599L537.794 450Z" fill="white"/>
    <path d="M334 384C330.676 384 328 381.294 328 378C328 374.706 330.706 372 334 372C337.294 372 340 374.706 340 378C340 381.294 337.294 384 334 384Z" fill="white"/>
    <path d="M532.76 443.76C530.413 446.108 530.413 449.892 532.76 452.24C535.108 454.587 538.892 454.587 541.24 452.24C543.587 449.892 543.587 446.108 541.24 443.76C538.892 441.413 535.108 441.413 532.76 443.76Z" fill="white"/>
    <path d="M944.341 550H681.167L632.354 491.693L721.025 385.81H631.066L582.253 444.117L580 441.426L629.749 382H728.692L636.861 491.693L682.484 546.225H943.024L1050.75 417.516L1053 420.207L944.341 550Z" fill="white"/>
    <path d="M581 448C584.314 448 587 445.314 587 442C587 438.686 584.314 436 581 436C577.686 436 575 438.686 575 442C575 445.314 577.686 448 581 448Z" fill="white"/>
    <path d="M1055.24 422.24C1057.59 419.892 1057.59 416.108 1055.24 413.76C1052.89 411.413 1049.11 411.413 1046.76 413.76C1044.41 416.108 1044.41 419.892 1046.76 422.24C1049.11 424.587 1052.89 424.587 1055.24 422.24Z" fill="white"/>
    <path d="M511 427H336.744L215.372 281.776H63V278H216.687L338.059 423.224H511V427Z" fill="white"/>
    <path d="M63 285C59.6765 285 57 282.294 57 279C57 275.706 59.7059 273 63 273C66.2941 273 69 275.706 69 279C69 282.294 66.2941 285 63 285Z" fill="white"/>
    <path d="M511 431C514.324 431 517 428.294 517 425C517 421.706 514.294 419 511 419C507.706 419 505 421.706 505 425C505 428.294 507.706 431 511 431Z" fill="white"/>
    <path d="M252.045 571H31V567.197H250.73L323.749 480L326 482.687L252.045 571Z" fill="white"/>
    <path d="M32 574C35.3137 574 38 571.314 38 568C38 564.686 35.3137 562 32 562C28.6863 562 26 564.686 26 568C26 571.314 28.6863 574 32 574Z" fill="white"/>
    <path d="M329.24 484.24C331.587 481.892 331.587 478.108 329.24 475.76C326.892 473.413 323.108 473.413 320.76 475.76C318.413 478.108 318.413 481.892 320.76 484.24C323.108 486.587 326.892 486.587 329.24 484.24Z" fill="white"/>
    <path d="M740.251 342L738 339.298L782.094 286.351H1237.12L1280.75 234L1283 236.702L1238.44 290.175H783.409L740.251 342Z" fill="white"/>
    <path d="M744.24 343.24C741.892 345.587 738.108 345.587 735.76 343.24C733.413 340.892 733.413 337.108 735.76 334.76C738.108 332.413 741.892 332.413 744.24 334.76C746.587 337.108 746.587 340.892 744.24 343.24Z" fill="white"/>
    <path d="M1286.24 238.24C1288.59 235.892 1288.59 232.108 1286.24 229.76C1283.89 227.413 1280.11 227.413 1277.76 229.76C1275.41 232.108 1275.41 235.892 1277.76 238.24C1280.11 240.587 1283.89 240.587 1286.24 238.24Z" fill="white"/>
    <path d="M947.197 435H712L788.236 344L790.457 346.687L719.688 431.197H945.881L1000.54 365.982H1208V369.786H1001.86L947.197 435Z" fill="white"/>
    <path d="M784.76 340.76C787.108 338.413 790.892 338.413 793.24 340.76C795.587 343.108 795.587 346.892 793.24 349.24C790.892 351.587 787.108 351.587 784.76 349.24C782.413 346.892 782.413 343.108 784.76 340.76Z" fill="white"/>
    <path d="M1208 373C1211.32 373 1214 370.294 1214 367C1214 363.706 1211.29 361 1208 361C1204.71 361 1202 363.706 1202 367C1202 370.294 1204.71 373 1208 373Z" fill="white"/>
    <path d="M937.565 505H702.725L682 480.316L684.251 477.635L704.04 501.205H936.249L1002.75 422L1005 424.681L937.565 505Z" fill="white"/>
    <path d="M679.76 483.24C677.413 480.892 677.413 477.108 679.76 474.76C682.108 472.413 685.892 472.413 688.24 474.76C690.587 477.108 690.587 480.892 688.24 483.24C685.892 485.587 682.108 485.587 679.76 483.24Z" fill="white"/>
    <path d="M1008.24 427.24C1010.59 424.892 1010.59 421.108 1008.24 418.76C1005.89 416.413 1002.11 416.413 999.76 418.76C997.413 421.108 997.413 424.892 999.76 427.24C1002.11 429.587 1005.89 429.587 1008.24 427.24Z" fill="white"/>
    <path d="M926.193 391H790L841.946 328.845L844.197 331.538L797.688 387.187H924.878L970.188 332.972H1272.36L1405.25 174H1499V177.813H1406.57L1273.68 336.785H971.503L926.193 391Z" fill="white"/>
    <path d="M838.76 324.76C841.108 322.413 844.892 322.413 847.24 324.76C849.587 327.108 849.587 330.892 847.24 333.24C844.892 335.587 841.108 335.587 838.76 333.24C836.413 330.892 836.413 327.108 838.76 324.76Z" fill="white"/>
    <path d="M1499 180C1502.32 180 1505 177.294 1505 174C1505 170.706 1502.29 168 1499 168C1495.71 168 1493 170.706 1493 174C1493 177.294 1495.71 180 1499 180Z" fill="white"/>
    <path d="M246.755 386L193.446 321.827H60V318H194.758L249 383.297L246.755 386Z" fill="white"/>
    <path d="M60 324C56.6765 324 54 321.294 54 318C54 314.706 56.7059 312 60 312C63.2941 312 66 314.706 66 318C66 321.294 63.2941 324 60 324Z" fill="white"/>
    <path d="M248 389C251.314 389 254 386.314 254 383C254 379.686 251.314 377 248 377C244.686 377 242 379.686 242 383C242 386.314 244.686 389 248 389Z" fill="white"/>
    <path d="M217.975 517H27V513.184H216.661L265.208 455H389V458.816H266.522L217.975 517Z" fill="white"/>
    <path d="M28 521C31.3137 521 34 518.314 34 515C34 511.686 31.3137 509 28 509C24.6863 509 22 511.686 22 515C22 518.314 24.6863 521 28 521Z" fill="white"/>
    <path d="M389 462C392.324 462 395 459.294 395 456C395 452.706 392.294 450 389 450C385.706 450 383 452.706 383 456C383 459.294 385.706 462 389 462Z" fill="white"/>
    <path d="M167.489 433H29V429.181H166.177L201.755 386L204 388.723L167.489 433Z" fill="white"/>
    <path d="M30 437C26.6765 437 24 434.294 24 431C24 427.706 26.7059 425 30 425C33.2941 425 36 427.706 36 431C36 434.294 33.2941 437 30 437Z" fill="white"/>
    <path d="M207.24 392.24C209.587 389.892 209.587 386.108 207.24 383.76C204.892 381.413 201.108 381.413 198.76 383.76C196.413 386.108 196.413 389.892 198.76 392.24C201.108 394.587 204.892 394.587 207.24 392.24Z" fill="white"/>
    <path d="M184.993 477H52V473.217H183.68L232.145 415H298V418.818H233.458L184.993 477Z" fill="white"/>
    <path d="M52 481C48.6765 481 46 478.294 46 475C46 471.706 48.7059 469 52 469C55.2941 469 58 471.706 58 475C58 478.294 55.2941 481 52 481Z" fill="white"/>
    <path d="M298 422C301.324 422 304 419.294 304 416C304 412.706 301.294 410 298 410C294.706 410 292 412.706 292 416C292 419.294 294.706 422 298 422Z" fill="white"/>
    <path d="M1596.9 566H1406.07L1345.38 493.081H1079.66L1026.25 557.258L1024 554.555L1078.35 489.255H1346.7L1407.38 562.173H1595.59L1669.83 473H1796V476.827H1671.15L1596.9 566Z" fill="white"/>
    <path d="M1030.24 558.24C1027.89 560.587 1024.11 560.587 1021.76 558.24C1019.41 555.892 1019.41 552.108 1021.76 549.76C1024.11 547.413 1027.89 547.413 1030.24 549.76C1032.59 552.108 1032.59 555.892 1030.24 558.24Z" fill="white"/>
    <path d="M1796 479C1799.32 479 1802 476.294 1802 473C1802 469.706 1799.29 467 1796 467C1792.71 467 1790 469.706 1790 473C1790 476.294 1792.71 479 1796 479Z" fill="white"/>
    <path d="M1323.22 333L1321 330.302L1415.5 217H1555.97L1615.27 288.085H1856V291.904H1613.96L1554.65 220.819H1416.81L1323.22 333Z" fill="white"/>
    <path d="M1327.24 334.24C1324.89 336.587 1321.11 336.587 1318.76 334.24C1316.41 331.892 1316.41 328.108 1318.76 325.76C1321.11 323.413 1324.89 323.413 1327.24 325.76C1329.59 328.108 1329.59 331.892 1327.24 334.24Z" fill="white"/>
    <path d="M1856 295C1859.32 295 1862 292.294 1862 289C1862 285.706 1859.29 283 1856 283C1852.71 283 1850 285.706 1850 289C1850 292.294 1852.71 295 1856 295Z" fill="white"/>
    <path d="M1653.9 618H1355.52L1334.97 593.389H1119V589.573H1336.29L1356.84 614.184H1652.58L1701.14 556H1868V559.816H1702.46L1653.9 618Z" fill="white"/>
    <path d="M1119 596C1115.68 596 1113 593.294 1113 590C1113 586.706 1115.71 584 1119 584C1122.29 584 1125 586.706 1125 590C1125 593.294 1122.29 596 1119 596Z" fill="white"/>
    <path d="M1867 563C1870.31 563 1873 560.314 1873 557C1873 553.686 1870.31 551 1867 551C1863.69 551 1861 553.686 1861 557C1861 560.314 1863.69 563 1867 563Z" fill="white"/>
    <path d="M1743 340H1577.76L1536.6 290.813H1412V287H1537.92L1579.08 336.187H1743V340Z" fill="white"/>
    <path d="M1412 294C1408.68 294 1406 291.294 1406 288C1406 284.706 1408.71 282 1412 282C1415.29 282 1418 284.706 1418 288C1418 291.294 1415.29 294 1412 294Z" fill="white"/>
    <path d="M1742 343C1745.32 343 1748 340.294 1748 337C1748 333.706 1745.29 331 1742 331C1738.71 331 1736 333.706 1736 337C1736 340.294 1738.71 343 1742 343Z" fill="white"/>
    <path d="M1567.18 520H1418.24L1355 444.015L1432.45 351L1434.7 353.704L1359.5 444.015L1419.56 516.173H1565.86L1654.6 409.569H1914V413.396H1655.92L1567.18 520Z" fill="white"/>
    <path d="M1429.76 346.76C1432.11 344.413 1435.89 344.413 1438.24 346.76C1440.59 349.108 1440.59 352.892 1438.24 355.24C1435.89 357.587 1432.11 357.587 1429.76 355.24C1427.41 352.892 1427.41 349.108 1429.76 346.76Z" fill="white"/>
    <path d="M1914 416C1917.32 416 1920 413.294 1920 410C1920 406.706 1917.29 404 1914 404C1910.71 404 1908 406.706 1908 410C1908 413.294 1910.71 416 1914 416Z" fill="white"/>
    <path d="M1444.22 437L1442 434.303L1489.79 377H1734V380.783H1491.1L1444.22 437Z" fill="white"/>
    <path d="M1447.24 438.24C1444.89 440.587 1441.11 440.587 1438.76 438.24C1436.41 435.892 1436.41 432.108 1438.76 429.76C1441.11 427.413 1444.89 427.413 1447.24 429.76C1449.59 432.108 1449.59 435.892 1447.24 438.24Z" fill="white"/>
    <path d="M1734 384C1737.31 384 1740 381.314 1740 378C1740 374.686 1737.31 372 1734 372C1730.69 372 1728 374.686 1728 378C1728 381.314 1730.69 384 1734 384Z" fill="white"/>
    <path d="M1543.92 475H1455L1504.33 416L1506.59 418.667L1462.72 471.174H1542.6L1573.74 433.935L1576 436.638L1543.92 475Z" fill="white"/>
    <path d="M1500.76 411.76C1503.11 409.413 1506.89 409.413 1509.24 411.76C1511.59 414.108 1511.59 417.892 1509.24 420.24C1506.89 422.587 1503.11 422.587 1500.76 420.24C1498.41 417.892 1498.41 414.108 1500.76 411.76Z" fill="white"/>
    <path d="M1578.24 438.24C1580.59 435.892 1580.59 432.108 1578.24 429.76C1575.89 427.413 1572.11 427.413 1569.76 429.76C1567.41 432.108 1567.41 435.892 1569.76 438.24C1572.11 440.587 1575.89 440.587 1578.24 438.24Z" fill="white"/>
  </g>
</svg>
