<svg width="1010" height="495" viewBox="0 0 1010 495" fill="none"
  xmlns="http://www.w3.org/2000/svg">
  <rect x="495" y="220.001" width="93" height="93" rx="8" fill="#E0E0E0"/>
  <rect x="621" y="220.001" width="93" height="93" rx="8" fill="#E0E0E0"/>
  <rect x="747" y="220.001" width="93" height="93" rx="8" fill="#A07AEA"/>
  <rect x="495" y="402.001" width="93" height="93" rx="8" fill="#E0E0E0"/>
  <rect x="621" y="402.001" width="93" height="93" rx="8" fill="#E0E0E0"/>
  <rect x="747" y="402.001" width="93" height="93" rx="8" fill="#E0E0E0"/>
  <path d="M358 118.001H729.874L773 166.001" stroke="url(#paint0_linear_458_1854)" stroke-width="3"/>
  <path d="M91.9632 165.001H100.251V149.377H106.355C115.035 149.377 121.923 145.345 121.923 136.105C121.923 126.585 115.035 123.561 106.355 123.561H91.9632V165.001ZM100.251 142.825V130.169H105.571C110.947 130.169 113.859 131.681 113.859 136.105C113.859 140.529 110.947 142.825 105.571 142.825H100.251ZM114.475 165.001H123.715L110.611 142.041L104.843 147.249L114.475 165.001ZM129.575 165.001H154.551V158.337H146.767V124.625H140.663C137.975 126.249 135.175 127.313 130.975 128.153V133.249H138.535V158.337H129.575V165.001ZM174.59 165.785C183.046 165.785 188.59 158.393 188.59 144.673C188.59 131.009 183.046 123.897 174.59 123.897C166.022 123.897 160.534 130.953 160.534 144.673C160.534 158.393 166.022 165.785 174.59 165.785ZM174.59 159.345C171.006 159.345 168.318 155.929 168.318 144.673C168.318 133.417 171.006 130.281 174.59 130.281C178.174 130.281 180.806 133.417 180.806 144.673C180.806 155.929 178.174 159.345 174.59 159.345ZM195.638 165.001H220.614V158.337H212.83V124.625H206.726C204.038 126.249 201.238 127.313 197.038 128.153V133.249H204.598V158.337H195.638V165.001Z" fill="white"/>
  <path fill-rule="evenodd" clip-rule="evenodd" d="M305.573 137.421V20.2178H262.448V6.37786H180.563V20.2178H59.9544V43.1619H19.3225V20.2178H5.64192V260.231H30.6063V269.956H66.5755V260.231H253.31V230.689H294.796V260.231H305.573V209.998H317.358V137.421H305.573ZM323 131.753V215.666H311.215V265.899H289.154V236.357H258.952V265.899H72.2174V275.624H24.9644V265.899H0V14.5495H24.9644V37.4935H54.3125V14.5495H174.922V0.709519H268.09V14.5495H311.215V131.753H323Z" fill="url(#paint1_linear_458_1854)"/>
  <path fill-rule="evenodd" clip-rule="evenodd" d="M59.7691 4.25223H53.5983V0.000976562H59.7691V4.25223ZM84.4525 4.25223H72.1108V0.000976562H84.4525V4.25223ZM109.136 4.25223H96.7942V0.000976562H109.136V4.25223ZM133.819 4.25223H121.478V0.000976562H133.819V4.25223ZM152.332 4.25223H146.161V0.000976562H152.332V4.25223Z" fill="url(#paint2_linear_458_1854)"/>
  <path fill-rule="evenodd" clip-rule="evenodd" d="M176.78 282.001H169.258V277.75H176.78V282.001ZM206.87 282.001H191.825V277.75H206.87V282.001ZM236.961 282.001H221.916V277.75H236.961V282.001ZM259.528 282.001H252.006V277.75H259.528V282.001Z" fill="url(#paint3_linear_458_1854)"/>
  <rect x="930" y="282.001" width="80" height="160" rx="8" fill="#616161"/>
  <path d="M959.24 319.361V324.201H968.36C968.48 325.561 968.64 327.001 968.92 328.521L966.48 328.081C964.28 338.601 959.52 346.321 951.2 350.521C952.44 351.441 954.68 353.401 955.56 354.401C962.52 350.241 967.32 343.601 970.32 334.641C972.52 341.801 976.76 349.361 985.04 354.361C985.88 353.121 987.84 351.041 988.88 350.201C974.16 341.521 973.08 326.921 973.08 319.361H959.24ZM959.32 401.521V381.881H980.52V401.521H959.32ZM954.32 377.041V409.681H959.32V406.441H980.52V409.601H985.76V377.041H954.32Z" fill="white"/>
  <defs>
    <linearGradient id="paint0_linear_458_1854" x1="358" y1="147.101" x2="384.256" y2="248.13" gradientUnits="userSpaceOnUse">
      <stop stop-color="#C59EF3"/>
      <stop offset="0.351841" stop-color="#A277FD"/>
      <stop offset="0.666667" stop-color="#7763F1"/>
      <stop offset="1" stop-color="#6C59FF"/>
    </linearGradient>
    <linearGradient id="paint1_linear_458_1854" x1="-3.61416e-06" y1="170.963" x2="256.379" y2="301.655" gradientUnits="userSpaceOnUse">
      <stop stop-color="#C59EF3"/>
      <stop offset="0.351841" stop-color="#A277FD"/>
      <stop offset="0.666667" stop-color="#7763F1"/>
      <stop offset="1" stop-color="#6C59FF"/>
    </linearGradient>
    <linearGradient id="paint2_linear_458_1854" x1="-3.61416e-06" y1="170.963" x2="256.379" y2="301.655" gradientUnits="userSpaceOnUse">
      <stop stop-color="#C59EF3"/>
      <stop offset="0.351841" stop-color="#A277FD"/>
      <stop offset="0.666667" stop-color="#7763F1"/>
      <stop offset="1" stop-color="#6C59FF"/>
    </linearGradient>
    <linearGradient id="paint3_linear_458_1854" x1="-3.61416e-06" y1="170.963" x2="256.379" y2="301.655" gradientUnits="userSpaceOnUse">
      <stop stop-color="#C59EF3"/>
      <stop offset="0.351841" stop-color="#A277FD"/>
      <stop offset="0.666667" stop-color="#7763F1"/>
      <stop offset="1" stop-color="#6C59FF"/>
    </linearGradient>
  </defs>
</svg>
